<?xml version="1.0" encoding="iso-8859-1"?>
<!-- Generator: Adobe Illustrator 20.1.0, SVG Export Plug-In . SVG Version: 6.00 Build 0)  -->
<svg version="1.1"  xmlns="http://www.w3.org/2000/svg" xmlns:xlink="http://www.w3.org/1999/xlink" x="0px" y="0px"
	 viewBox="0 0 48 48" style="enable-background:new 0 0 48 48;" xml:space="preserve">
<path style="fill:#E3F2FD;" d="M40,41.998c0.187-8.405-11-10.999-11-10.999H19c0,0-11.009,2.344-11,10.999v2h32V41.998z"/>
<path style="fill:#90CAF9;" d="M29.002,30.999h-10c0,0-11.187,2.594-11,10.999v2h1l0-2.022c-0.158-7.08,9.04-9.694,10.124-9.977
	h9.763c1.033,0.248,10.121,2.647,10.114,9.999v2h1v-2C40.011,33.343,29.002,30.999,29.002,30.999z"/>
<rect x="21" y="35" style="fill:#90CAF9;" width="6" height="9"/>
<path style="fill:#90CAF9;" d="M39.336,44H34V33.81c0,0,5.336,3.366,5.336,7.683C39.336,42.453,39.336,44,39.336,44z"/>
<path style="fill:#90CAF9;" d="M8.666,44h5.336V33.81c0,0-5.336,3.366-5.336,7.683C8.666,42.453,8.666,44,8.666,44z"/>
<path style="fill:#263238;" d="M17.142,31.739C17.771,33.321,19.923,36,24,36s6.229-2.679,6.858-4.261l0.066-0.166
	c-1.141-0.405-1.922-0.573-1.922-0.573h-10c0,0-0.778,0.182-1.916,0.6L17.142,31.739z"/>
<path style="fill:#FB8C00;" d="M19,31v-6h10v6c0,0-1.193,3-5,3S19,31,19,31z"/>
<path style="fill:#FB8C00;" d="M35,19c0,1.105-0.895,2-2,2c-1.104,0-2-0.895-2-2s0.896-2,2-2C34.105,17,35,17.895,35,19 M17,19
	c0-1.105-0.895-2-2-2s-2,0.895-2,2s0.895,2,2,2S17,20.105,17,19"/>
<path style="fill:#FFA726;" d="M33,13c0-7.635-18-8.893-18,0v7c0,4.971,4.029,9,9,9c4.972,0,9-4.029,9-9V13z"/>
<path style="fill:#795548;" d="M12,12.574c1.191,0.287,2,1.407,2,2.426v2.286L16,19v-3.686l2.48,1.851
	c0.076-6.125,9.069-4.003,10.277-7.697l1.238,2.599C32.221,11.993,32,14.493,32,14.493V19l2-1.742V15c0-4.025-1.554-8-5-8
	c0,0-0.078-3-3.385-3C14.068,4,12,12.574,12,12.574z"/>
<path style="fill:#37474F;" d="M26,19c0-0.551,0.448-1,1-1s1,0.449,1,1s-0.448,1-1,1S26,19.551,26,19 M20,19c0,0.551,0.448,1,1,1
	s1-0.449,1-1s-0.448-1-1-1S20,18.449,20,19"/>
<path style="fill:none;stroke:#263238;stroke-width:2;stroke-miterlimit:10;" d="M25,44v-1.218c0-1.105,0.895-2,2-2h0
	c1.105,0,2,0.895,2,2V44"/>
<polyline style="fill:none;stroke:#263238;stroke-width:2;stroke-miterlimit:10;" points="19,41 21,41 21,44 "/>
</svg>
